<svg version="1" xmlns="http://www.w3.org/2000/svg" width="237.333" height="237.333" viewBox="0 0 178.000000 178.000000"><path d="M35 3.7c-3.9 13.8-7.9 44.5-6.1 46.7.5.6 1.1 4.6 1.5 8.8l.7 7.7-3.5-1.4C20 62.3 15.4 68.2 16.2 80c.8 10.8 6.8 21 15.1 25.5 4 2.1 8.7 1.4 8.7-1.3 0-.9 2.6 3.2 5.8 9.3 4.2 8.2 7.3 12.6 12 17.2L64 137H53c-12.9 0-16 1-21.2 6.8-4.8 5.3-5.8 9.3-5.8 22.9 0 10.6.1 11.3 2 11.3s2-.7 2-11.8c0-10.2.3-12.4 2.3-16.2 1.2-2.5 3.8-5.5 5.7-6.8 3.2-2.2 4.3-2.3 16.7-2.1 9.8.1 13.3.5 13.3 1.4 0 1.5 4.4 5.9 5.9 6.1.6.1 1.6.2 2.2.3.5 0 .7.5.4 1.1-.4.6.1.7 1.1.3 1.3-.5 1.5-.3.9.8-.6 1-.5 1.1.3.4.6-.6 4.3-.8 8.9-.5 7 .4 8.4.2 13.4-2.2 3.1-1.4 6.7-4 8.2-5.7 2.5-3 2.9-3.1 10.5-3.1h8l.7 4.6c.4 3.1.2 5-.7 6.2-1.2 1.6-1.1 1.6.6.2 1.8-1.4 1.9-1.3 1.3.2-.4 1.2.3 2.6 2.1 4.3 1.5 1.4 2.1 2.5 1.4 2.5-.7 0-1 .4-.7 1 .3.5.2 1-.3 1-.9 0 0 6.7 1.4 10.4.6 1.5.4 1.7-.6 1.1-.9-.5-1.1-.4-.6.4.4.6 1 .9 1.4.7.4-.2 1.3.2 2 1 .8.9.9 1.4.2 1.4s-.5.6.4 1.5c1.9 1.9 3.2 1.9 4-.1.5-1.3 2-1.4 11-.8 7.6.5 10.5.3 11.1-.5.4-.7.4-1.5.1-1.8-.3-.3-5.9-.8-12.5-1.1-11.4-.4-11.9-.6-13-2.9-1.6-3.5-1.4-10.2.3-10.9.8-.3 6.3-.9 12.3-1.2 14.6-.9 13.7-2.7-1.5-2.7-6.4 0-12.3-.4-12.9-.8-.7-.4-2-3.3-2.9-6.4-2.2-7.7-1.2-9.7 6.3-11.9 14.1-4.1 25.4-1.4 31.3 7.4l3.1 4.7-.3 15.3c-.2 11.4 0 15.2.9 15.2 1.9 0 2.5-5.6 2.1-19.2-.3-11.8-.5-12.7-3.3-17.4-2.4-3.9-4.2-5.5-9.2-7.9-7.3-3.5-8.1-5.1-9.2-17.7-.6-6.6-1.1-8.4-2.7-9.5-2-1.3-1.9-1.4 2.1-5.7 5.6-5.8 8.6-12.4 9.2-19.9.9-12.1-3.7-18.4-11.1-15.3l-3.5 1.5.6-6.7c.3-3.7 1-7.2 1.5-7.9 1.7-2.1-2.1-36.6-5.3-48.6-.5-2-1.4-3.7-1.9-3.7-1.3 0-1.3-.1.9 11.5 2.4 11.9 4.7 35.5 3.8 37.8-1 2.5-4.7 2.2-4.7-.4 0-3.3-11.3-14.3-18.8-18.2-12.1-6.4-19.9-8.2-35.2-8.2-11.5 0-14.5.3-20.5 2.3-11.6 3.9-18.5 8.1-26.9 16.4-4.3 4.3-8.5 7.8-9.3 7.8-1.3 0-1.4-1.3-.8-8.8.9-11.3 4-29.5 5.9-35.1 1.9-5.3 1.9-5.1.1-5.1-.8 0-1.9 1.6-2.5 3.7zm64.8 21.8c13.1 1.5 32.1 10.4 34.3 16.2.5 1.3 1.4 2.1 2 1.8.6-.4 1.3.2 1.6 1.4.3 1.1.9 1.9 1.3 1.6 1.1-.7 3.3 9.7 3.4 16 .1 4.9.1 5-2.9 4.9-1.9-.1-6.5-2.4-11.8-5.8-29.5-19.3-49.5-19.4-77.1-.6-4.9 3.4-8.8 5.3-10.9 5.4l-3.2.1.1-8.2c.1-7.9 1.4-12 3.5-10.7.5.3.9-.3.9-1.3 0-4.1 14-14.1 25.1-18 7.3-2.5 19.5-4.3 25.4-3.7 1.7.2 5.4.6 8.3.9zM96.2 57l-.4 7.1-6.6-.3-6.7-.3-.3-6.3C82 53.8 81.5 51 81 51c-.6 0-1 .7-1 1.5 0 1.8-.1 1.8-3.7.4l-2.8-1.2L76 51c1.4-.5 6.6-.8 11.5-.9l9-.1-.3 7zm-62.5-1.3c-.3 1-.5.2-.5-1.7s.2-2.7.5-1.8c.2 1 .2 2.6 0 3.5zm69.1-3.9c.9.6.6 1.2-1.3 2-2.2 1-2.5.9-2.5-.8 0-2.1 1.6-2.6 3.8-1.2zm43.1 5.9c-.1 4.3-.2 4.5-.9 1.8-1.1-4.4-1.1-6.5 0-6.5.6 0 .9 2.1.9 4.7zm-27.1 2c-1 .2-2.6.2-3.5 0-1-.3-.2-.5 1.7-.5s2.7.2 1.8.5zm-67.4 5.4c-.4.7 0 .9 1.2.6 5.2-1.6 7.3-1.7 11.4-.8 2.7.6 4.7.6 5 .1.8-1.2 8 .7 10.3 2.8 3.4 3 1.4 10.9-3.9 15.1-3.1 2.4-10.9 2.8-19.5 1-7.4-1.6-8.9-3.5-8.9-11.4 0-5 .4-6.6 1.8-7.4 2.3-1.4 3.5-1.4 2.6 0zm74 .5c1.5.6 1.7.4 1.1-.7-.7-1.1-.3-1 1.5.2 2 1.3 2.6 2.6 2.8 6.7.6 9.3-3.2 12.2-17 13l-8.8.5-4-4c-3.4-3.4-4-4.7-4-8.2 0-5.5 2.9-7.4 12.2-7.7 3.9-.2 7.3-.6 7.7-.9.7-.7 5.5-.1 8.5 1.1zm-98 3c2.3.9 5.3 6.3 6 10.9l.6 4-2.6-5.3c-2.7-5.5-6.4-8.8-8.8-7.9-1.7.7-3 5.9-2.1 8.7 1.1 3.4 2.1 2.2 1.7-1.9-.5-4.6 1.1-6 3.9-3.5 1.7 1.5 1.8 1.9.4 2.6-2.3 1.3-1.8 2.6.9 2.1 3.5-.7 4.1 2.3 1.1 5.9-1.4 1.6-2.5 3.9-2.5 5 0 1.7-.2 1.8-1.5.8-2.2-1.8-1.8-.5 1.1 4 2.7 4 4.7 5.1 9.4 4.7 1.9-.2 2.6.3 2.8 2.1.5 3.5-2.3 3.8-6.7.7-9.3-6.4-14.4-20.5-11-30.4 1.1-3.1 3.5-4 7.3-2.5zm130.5.8c1.8 2.2 2.4 10.2 1.2 15.3-.7 2.6-2.6 6.8-4.3 9.3-3 4.5-9.2 10-11.2 10-2.3 0-3.5-1.6-2.9-3.8.5-1.9 1-2.1 4.3-1.6 3.4.6 3.9.3 7.3-3.7 3.9-4.5 5-7.4 1.8-4.5-1.7 1.6-1.8 1.6-1.4-.7.3-1.5-.4-3.4-2.1-5.4-3.1-3.7-2.6-6.7 1-6 2.7.5 3.2-.8.9-2.1-1.4-.7-1.3-1.1.5-2.7s2.3-1.7 3.1-.5c.5.8.8 3 .6 4.7-.4 4 1 4.4 1.9.6.7-2.8-1.1-7.3-3.3-8.1-3.8-1.2-11.8 13.1-9.5 16.9 2.3 3.6.4 8.9-3.3 8.9-1.2 0-1.5-.5-1-1.8.3-.9 1.5-5.5 2.6-10.1 1.9-8.3 4.8-14.5 7.2-15.5 2.4-.9 5.5-.6 6.6.8zM42 72.5c.6 1.9 1.6 3.5 2.1 3.5s1.5 1.5 2.3 3.4c2 4.7 8.3 7 19.4 7.1h8.3l3.7-4.1c2-2.2 4.8-5.5 6.2-7.2 2.9-3.7 6.4-4.2 8.2-1.2.7 1.1 1.7 2 2.3 2 .5 0 2 1.8 3.2 3.9 3.3 5.7 7.9 7.5 16.9 6.7 10-.8 15.3-3 17-7.3.8-1.8 1.9-3.3 2.4-3.3s1.6-1.3 2.4-2.9c1.8-3.3 7.6-5 7.6-2.2-.1 5.8-6.5 26.6-11.3 36.4-7.9 16.5-9.7 18.9-20.4 27.2l-9.8 7.5H76.2l-9.6-7.6c-10.6-8.3-13.5-12.5-22.8-32.2-5.8-12.3-10.2-30.7-7.7-32.3 2.8-1.8 4.7-.9 5.9 2.6zM32 84.9c0 .6-.4 1.3-1 1.6-1.5 1-1.2 5.8.6 8.4 1.6 2.2 1.5 2.3-.2 1.9-1.1-.2-1.9-.8-2-1.3 0-.6-.4-2.4-.8-4.2-.4-1.9-.3-4 .4-5.2 1.1-2.1 3-2.8 3-1.2zm118.1 1.8c.6 1.7.6 3.6 0 5.5-.6 1.5-.7 2.8-.3 2.8.9 0-2.1 2-3.1 2-.4 0 0-1.1.9-2.5 1.6-2.4 1.5-4.9-.1-8.8-.4-1-.3-1.7.4-1.7.6 0 1.6 1.2 2.2 2.7zM36.6 95.8c-.3.2-1.2.2-2-.1-2.2-.9-3.1-5.4-1.5-8.3 1.3-2.4 1.3-2.4 2.6 2.7.7 2.9 1.1 5.4.9 5.7zm113.5 12.8c.5.3.9 2.5.9 4.8 0 4.5 1.3 12.7 2.6 16 .6 1.5.4 1.8-.9 1.3-.9-.3-4.2-.2-7.4.3-5.4.9-5.9.8-7.6-1.3-4.5-5.7-4.9-7.3-3.2-13.9 2.2-8.6 2.8-9.2 9.4-8.4 2.9.4 5.8.9 6.2 1.2zm-15.7 21.6l1.8 2.7-3.8 1.6c-2.5 1-6.1 1.5-10.2 1.3l-6.4-.3 4.4-3.3c2.4-1.8 5.4-5 6.8-7.2l2.4-4 1.6 3.3c.9 1.7 2.4 4.4 3.4 5.9zM90 145.4c12-.1 13.1 0 10 1.2-4.3 1.5-16.2 1.8-21.2.4-2-.6-4.7-2-6-3.1l-2.3-2 3 1.8c2.5 1.5 5 1.8 16.5 1.7z"/><path d="M80.8 38.7c.7.3 1.6.2 1.9-.1.4-.3-.2-.6-1.3-.5-1.1 0-1.4.3-.6.6zM85.8 38.7c.7.3 1.6.2 1.9-.1.4-.3-.2-.6-1.3-.5-1.1 0-1.4.3-.6.6zM89.8 38.7c.7.3 1.6.2 1.9-.1.4-.3-.2-.6-1.3-.5-1.1 0-1.4.3-.6.6zM94.8 38.7c.7.3 1.6.2 1.9-.1.4-.3-.2-.6-1.3-.5-1.1 0-1.4.3-.6.6zM75.8 39.7c.7.3 1.6.2 1.9-.1.4-.3-.2-.6-1.3-.5-1.1 0-1.4.3-.6.6zM98.8 39.7c.7.3 1.6.2 1.9-.1.4-.3-.2-.6-1.3-.5-1.1 0-1.4.3-.6.6zM71 41c0 .5.7.7 1.5.4.8-.4 1.5-.8 1.5-1 0-.2-.7-.4-1.5-.4s-1.5.4-1.5 1zM103 40.4c0 .2.7.6 1.5 1 .8.3 1.5.1 1.5-.4 0-.6-.7-1-1.5-1s-1.5.2-1.5.4zM67 42c-1.3.8-1.2 1 .3 1 .9 0 1.7-.5 1.7-1 0-1.2-.1-1.2-2 0zM107.5 42c.3.5 1.1 1 1.6 1 .6 0 .7-.5.4-1-.3-.6-1.1-1-1.6-1-.6 0-.7.4-.4 1zM63 44c-.9.6-1 1-.3 1 .6 0 1.5-.5 1.8-1 .8-1.2.4-1.2-1.5 0zM79.8 43.7c.7.3 1.6.2 1.9-.1.4-.3-.2-.6-1.3-.5-1.1 0-1.4.3-.6.6zM83.8 43.7c.7.3 1.6.2 1.9-.1.4-.3-.2-.6-1.3-.5-1.1 0-1.4.3-.6.6zM88.8 43.7c.7.3 1.6.2 1.9-.1.4-.3-.2-.6-1.3-.5-1.1 0-1.4.3-.6.6zM93.8 43.7c.7.3 1.6.2 1.9-.1.4-.3-.2-.6-1.3-.5-1.1 0-1.4.3-.6.6zM112.5 44c.3.5 1.1 1 1.6 1 .6 0 .7-.5.4-1-.3-.6-1.1-1-1.6-1-.6 0-.7.4-.4 1zM74.8 44.7c.7.3 1.6.2 1.9-.1.4-.3-.2-.6-1.3-.5-1.1 0-1.4.3-.6.6zM98.8 44.7c.7.3 1.6.2 1.9-.1.4-.3-.2-.6-1.3-.5-1.1 0-1.4.3-.6.6zM42.7 45.7c-.4.3-.7 1.1-.7 1.7 0 .6.5.5 1.2-.2.6-.6.9-1.4.7-1.7-.3-.3-.9-.2-1.2.2zM59 46c-.9.6-1 1-.3 1 .6 0 1.5-.5 1.8-1 .8-1.2.4-1.2-1.5 0zM70.5 46c-.3.5-.2 1 .4 1 .5 0 1.3-.5 1.6-1 .3-.6.2-1-.4-1-.5 0-1.3.4-1.6 1zM102.8 45.7c.7.3 1.6.2 1.9-.1.4-.3-.2-.6-1.3-.5-1.1 0-1.4.3-.6.6zM116 45.4c0 .2.7.6 1.5 1 .8.3 1.5.1 1.5-.4 0-.6-.7-1-1.5-1s-1.5.2-1.5.4zM135.2 47c0 1.4.2 1.9.5 1.2.2-.6.2-1.8 0-2.5-.3-.6-.5-.1-.5 1.3zM106 46.4c0 .2.7.6 1.5 1 .8.3 1.5.1 1.5-.4 0-.6-.7-1-1.5-1s-1.5.2-1.5.4zM66 48c0 .5.7.7 1.5.4.8-.4 1.5-.8 1.5-1 0-.2-.7-.4-1.5-.4s-1.5.4-1.5 1zM120 47.4c0 .2.7.7 1.6 1 .8.3 1.2.2.9-.4-.6-1-2.5-1.4-2.5-.6zM54 49c0 .5.7.7 1.5.4.8-.4 1.5-.8 1.5-1 0-.2-.7-.4-1.5-.4s-1.5.4-1.5 1zM111.8 48.7c.7.3 1.6.2 1.9-.1.4-.3-.2-.6-1.3-.5-1.1 0-1.4.3-.6.6zM138 48.9c0 .5.5 1.3 1 1.6.6.3 1 .2 1-.4 0-.5-.4-1.3-1-1.6-.5-.3-1-.2-1 .4zM39.1 50.6c0 1.1.3 1.4.6.6.3-.7.2-1.6-.1-1.9-.3-.4-.6.2-.5 1.3zM42.2 51c0 1.4.2 1.9.5 1.2.2-.6.2-1.8 0-2.5-.3-.6-.5-.1-.5 1.3zM61.5 50c-.3.5-.2 1 .4 1 .5 0 1.3-.5 1.6-1 .3-.6.2-1-.4-1-.5 0-1.3.4-1.6 1zM115 50c0 .6.7 1 1.5 1s1.5-.2 1.5-.4-.7-.6-1.5-1c-.8-.3-1.5-.1-1.5.4zM124 49.4c0 .2.7.9 1.5 1.6.9.7 1.5.8 1.5.2 0-.5-.7-1.2-1.5-1.6-.8-.3-1.5-.4-1.5-.2zM50.5 51c-.3.5-.2 1 .4 1 .5 0 1.3-.5 1.6-1 .3-.6.2-1-.4-1-.5 0-1.3.4-1.6 1zM135 51.4c0 .9.5 1.6 1 1.6.6 0 1-.4 1-.9 0-.6-.4-1.3-1-1.6-.5-.3-1 .1-1 .9zM57.5 52c-.3.6.1.7.9.4 1.8-.7 2.1-1.4.7-1.4-.6 0-1.3.4-1.6 1zM120.5 53c.3.5.8 1 1.1 1 .2 0 .4-.5.4-1 0-.6-.5-1-1.1-1-.5 0-.7.4-.4 1zM128.7 53.1c.7.7 1.5 1 1.8.7.3-.3-.2-.9-1.2-1.2-1.4-.6-1.5-.5-.6.5zM46.5 54c-.3.6.1.7.9.4 1.8-.7 2.1-1.4.7-1.4-.6 0-1.3.4-1.6 1zM53.5 54c-.3.5-.2 1 .4 1 .5 0 1.3-.5 1.6-1 .3-.6.2-1-.4-1-.5 0-1.3.4-1.6 1zM139.1 54.6c0 1.1.3 1.4.6.6.3-.7.2-1.6-.1-1.9-.3-.4-.6.2-.5 1.3zM38.1 55.6c0 1.1.3 1.4.6.6.3-.7.2-1.6-.1-1.9-.3-.4-.6.2-.5 1.3zM42 55c0 .6.7 1 1.5 1s1.5-.2 1.5-.4-.7-.6-1.5-1c-.8-.3-1.5-.1-1.5.4zM123.5 55c.3.5 1.1 1 1.6 1 .6 0 .7-.5.4-1-.3-.6-1.1-1-1.6-1-.6 0-.7.4-.4 1zM132 55c0 .6.7 1 1.5 1s1.5-.2 1.5-.4-.7-.6-1.5-1c-.8-.3-1.5-.1-1.5.4zM50 56c-.8.5-1.2 1.2-.9 1.5.4.3 1.2-.1 1.9-1 1.4-1.7 1.1-1.9-1-.5zM127.5 58c.3.5 1.1 1 1.6 1 .6 0 .7-.5.4-1-.3-.6-1.1-1-1.6-1-.6 0-.7.4-.4 1zM45.5 59c-.3.5-.2 1 .4 1 .5 0 1.3-.5 1.6-1 .3-.6.2-1-.4-1-.5 0-1.3.4-1.6 1zM139.1 59.6c0 1.1.3 1.4.6.6.3-.7.2-1.6-.1-1.9-.3-.4-.6.2-.5 1.3zM38 60.5c0 .8.4 1.5 1 1.5.5 0 .7-.7.4-1.5-.4-.8-.8-1.5-1-1.5-.2 0-.4.7-.4 1.5zM42 61c-.9.6-1 1-.3 1 .6 0 1.5-.5 1.8-1 .8-1.2.4-1.2-1.5 0zM131 60.4c0 .2.7.7 1.6 1 .8.3 1.2.2.9-.4-.6-1-2.5-1.4-2.5-.6zM135.8 62.7c.7.3 1.6.2 1.9-.1.4-.3-.2-.6-1.3-.5-1.1 0-1.4.3-.6.6zM53.3 67.7c-.7.2-1.3 1.2-1.3 2.1 0 1.2.3 1.3 1.2.4 2-2 3.8-1.4 3.8 1.3 0 1.5.9 3.1 2.5 4.1 2.3 1.5 2.7 1.5 5 0 1.4-.9 2.5-2.6 2.5-3.7 0-1.6.4-1.9 2-1.4 3 .9 2.4-.2-1-2-2.7-1.4-12-2-14.7-.8zm12.5 2.5c-.3.7-1.1 1.3-1.8 1.3s-1.5-.6-1.7-1.3c-.3-.7.4-1.2 1.7-1.2 1.3 0 2 .5 1.8 1.2zM118 66.7c-4.9.7-10 2.4-10 3.3 0 .5.7.7 1.5.4 1-.4 1.5 0 1.5 1.4 0 2.2 1.4 3.6 4.7 4.6 2.8.9 6.7-2.7 6-5.5-.6-2.1 1.2-2.6 3.1-.7 1.6 1.6 2.4.5.9-1.4-1.4-1.9-4.2-2.6-7.7-2.1zm1.8 3.4c-.2.6-.8 1-1.3 1s-1.1-.4-1.3-1c-.2-.6.4-1.1 1.3-1.1s1.5.5 1.3 1.1zM80 82.4c0 .7-1.3 3-3 5.1-8 10 1.9 16.7 18.9 12.7 7-1.6 8.4-5.6 4.3-12-2.3-3.5-2.7-1.7-.7 2.8 1.7 3.8 1.7 4.2.2 5.8-1.1 1-1.7 1.2-1.7.4 0-1.9-3.5-1.4-5.5.8-1 1.1-3 2-4.5 2s-3.9-.9-5.3-2c-2.8-2.2-4.7-2.6-4.7-.9 0 .5-.4.7-1 .4-2-1.2-1-5.8 2-9.2 2.9-3.3 4-7.3 2-7.3-.5 0-1 .6-1 1.4z"/><path d="M75.2 104.9c-.6 1.6-2.1 3.5-3.4 4.2-1.3.6-2.6 1.7-3 2.2-1 1.6 1 4.7 4 6 1.5.6 3.3 2 4 2.9.7 1 2.1 1.8 3 1.8 1.2 0 1.3-.3.4-1.2-2.1-2.1-1.4-2.6 5.9-3.8 6.8-1.2 10.9-1 15.7.5 3.4 1.1 2.7-1.1-.8-2.5-3-1.2-9.3-1.1-22 .6-3.2.4-5.1.1-6.5-1-2-1.5-1.9-1.5 1.2-4.3 1.8-1.5 3.5-4 3.9-5.6.8-3.7-1.1-3.5-2.4.2zM45.1 1.6c0 1.1.3 1.4.6.6.3-.7.2-1.6-.1-1.9-.3-.4-.6.2-.5 1.3zM133 .7c0 .4.5 1.5 1 2.3.8 1.3 1 1.3 1-.2 0-.9-.4-2-1-2.3-.5-.3-1-.3-1 .2zM88 3.5c0 .8.5 1.5 1 1.5.6 0 1-.7 1-1.5S89.6 2 89 2c-.5 0-1 .7-1 1.5zM43.6 5.6c-.4.9-.4 1.9-.1 2.2.2.3.7-.3 1.1-1.2.4-.9.4-1.9.1-2.2-.2-.3-.7.3-1.1 1.2zM135.2 7c0 1.4.2 1.9.5 1.2.2-.6.2-1.8 0-2.5-.3-.6-.5-.1-.5 1.3zM88 9.1c0 1.1.5 1.7 1 1.4.6-.3 1-1.3 1-2.1S89.6 7 89 7c-.5 0-1 .9-1 2.1zM42.6 10.6c-.4.9-.4 1.9-.1 2.2.2.3.7-.3 1.1-1.2.4-.9.4-1.9.1-2.2-.2-.3-.7.3-1.1 1.2zM136.1 11.6c0 1.1.3 1.4.6.6.3-.7.2-1.6-.1-1.9-.3-.4-.6.2-.5 1.3zM88 14c0 1.1.5 2 1 2 .6 0 1-.9 1-2s-.4-2-1-2c-.5 0-1 .9-1 2zM41.6 16.5c-.3.8-.1 1.5.4 1.5.6 0 1-.7 1-1.5s-.2-1.5-.4-1.5-.6.7-1 1.5zM137 16.2c0 .9.5 2 1 2.3 1.3.8 1.3-.5 0-2.5-.8-1.3-1-1.3-1 .2zM88 19c0 1.1.5 2 1 2 .6 0 1-.9 1-2s-.4-2-1-2c-.5 0-1 .9-1 2zM41.1 21.6c0 1.1.3 1.4.6.6.3-.7.2-1.6-.1-1.9-.3-.4-.6.2-.5 1.3zM138 21.2c0 .9.5 2 1 2.3 1.3.8 1.3-.5 0-2.5-.8-1.3-1-1.3-1 .2zM40.1 26.6c0 1.1.3 1.4.6.6.3-.7.2-1.6-.1-1.9-.3-.4-.6.2-.5 1.3zM139.2 27c0 1.4.2 1.9.5 1.2.2-.6.2-1.8 0-2.5-.3-.6-.5-.1-.5 1.3zM39.6 30.9c-.4.7-.5 1.5-.2 1.8.9.9 1.9-.4 1.4-1.8-.4-1.1-.6-1.1-1.2 0zM140.1 32.6c0 1.1.3 1.4.6.6.3-.7.2-1.6-.1-1.9-.3-.4-.6.2-.5 1.3zM39.2 37c0 1.4.2 1.9.5 1.2.2-.6.2-1.8 0-2.5-.3-.6-.5-.1-.5 1.3zM140 37.5c0 .8.5 1.5 1 1.5.6 0 1-.7 1-1.5s-.4-1.5-1-1.5c-.5 0-1 .7-1 1.5zM108 148c0 .5.5 1 1.1 1 .5 0 .7-.5.4-1-.3-.6-.8-1-1.1-1-.2 0-.4.4-.4 1zM157 147.5c0 .8 4.2 4.4 5.3 4.5 1.7 0 .5-1.7-2.3-3.3-1.6-1-3-1.5-3-1.2zM110.5 149.9c-.3.5-.2 1.2.3 1.5.5.3.9-.1.9-.9 0-1.7-.3-1.9-1.2-.6zM128.6 159.3c.3 1 .9 1.5 1.2 1.2.3-.3 0-1.1-.7-1.8-1-.9-1.1-.8-.5.6zM129.1 173.6c0 1.1.3 1.4.6.6.3-.7.2-1.6-.1-1.9-.3-.4-.6.2-.5 1.3z"/></svg>